<?xml version="1.0" encoding="UTF-8" standalone="no"?>
<svg
   width="19.6625"
   height="16.94504"
   viewBox="0 0 19.6625 16.94504"
   fill="none"
   version="1.1"
   id="svg25"
   sodipodi:docname="wallet_logo_large_screen_aurora_crop.svg"
   inkscape:version="1.4.3 (0d15f75, 2025-12-25)"
   xmlns:inkscape="http://www.inkscape.org/namespaces/inkscape"
   xmlns:sodipodi="http://sodipodi.sourceforge.net/DTD/sodipodi-0.dtd"
   xmlns="http://www.w3.org/2000/svg"
   xmlns:svg="http://www.w3.org/2000/svg">
  <sodipodi:namedview
     id="namedview25"
     pagecolor="#ffffff"
     bordercolor="#000000"
     borderopacity="0.25"
     inkscape:showpageshadow="2"
     inkscape:pageopacity="0.0"
     inkscape:pagecheckerboard="0"
     inkscape:deskcolor="#d1d1d1"
     inkscape:zoom="4.9290718"
     inkscape:cx="90.17925"
     inkscape:cy="-17.346065"
     inkscape:window-width="2496"
     inkscape:window-height="1558"
     inkscape:window-x="-11"
     inkscape:window-y="-11"
     inkscape:window-maximized="1"
     inkscape:current-layer="g17" />
  <g
     clip-path="url(#clip0_17633_2641)"
     id="g18"
     transform="translate(-2.5871,-3.88086)">
    <g
       clip-path="url(#clip1_17633_2641)"
       id="g17">
      <path
         d="m 2.5871,7.673 c 0,-2.09434 1.70681,-3.79214 3.81226,-3.79214 H 18.436 c 2.1054,0 3.8122,1.6978 3.8122,3.79214 v 6.9381 c 0,2.0944 -1.7068,3.7922 -3.8122,3.7922 H 6.39936 c -2.10546,0 -3.81226,-1.6978 -3.81226,-3.7922 z"
         fill="url(#paint0_linear_17633_2641)"
         id="path9"
         style="fill:url(#paint0_linear_17633_2641)" />
      <path
         d="m 2.5871,10.2075 c 0,-2.13713 1.70681,-3.86961 3.81227,-3.86961 H 18.4359 c 2.1055,0 3.8123,1.73248 3.8123,3.86961 v 4.3256 c 0,2.1371 -1.7068,3.8696 -3.8123,3.8696 H 6.39937 c -2.10546,0 -3.81227,-1.7325 -3.81227,-3.8696 z"
         fill="url(#paint1_linear_17633_2641)"
         id="path10"
         style="fill:url(#paint1_linear_17633_2641)" />
      <path
         d="m 2.5871,12.6046 c 0,-2.104 1.70852,-3.80968 3.81608,-3.80968 H 18.4321 c 2.1076,0 3.8161,1.70568 3.8161,3.80968 v 1.9877 c 0,2.1041 -1.7085,3.8098 -3.8161,3.8098 H 6.40317 c -2.10756,0 -3.81607,-1.7057 -3.81607,-3.8098 z"
         fill="url(#paint2_linear_17633_2641)"
         id="path11"
         style="fill:url(#paint2_linear_17633_2641)" />
      <path
         d="m 2.58844,11.0391 12.45396,2.948 c 1.5073,0.3392 3.0888,0.0161 4.3243,-0.8965 l 2.8829,-2.1726 c 0,1.6851 0,4.231 0,6.3247 0,1.9985 -1.6082,3.5832 -3.6221,3.5832 -3.9293,0 -9.00211,0 -12.37513,0 -2.01389,0 -3.66393,-1.5858 -3.66393,-3.5843 z"
         fill="url(#paint3_linear_17633_2641)"
         id="path12"
         style="fill:url(#paint3_linear_17633_2641)" />
      <mask
         id="mask0_17633_2641"
         maskUnits="userSpaceOnUse"
         x="2"
         y="10"
         width="21"
         height="11">
        <path
           d="m 2.5871,11.0391 12.454,2.948 c 1.5073,0.3392 3.0887,0.0161 4.3243,-0.8965 l 2.8828,-2.1726 c 0,1.6851 0,4.231 0,6.3247 0,1.9985 -1.6297,3.6175 -3.6436,3.6175 -3.9293,0 -9.00218,0 -12.3752,0 -2.01389,0 -3.6423,-1.6201 -3.6423,-3.6186 z"
           fill="url(#paint4_linear_17633_2641)"
           id="path13" />
      </mask>
      <g
         mask="url(#mask0_17633_2641)"
         id="g16">
        <g
           filter="url(#filter0_f_17633_2641)"
           id="g14">
          <path
             d="M 15.057,16.4834 7.78118,13.7713 4.14328,12.4152 2.58715,11.807 1.09207,11.0857 1.09206,9.21176 23.5791,9.21162 v 3.96758 c -0.3921,0.7979 -0.8401,1.4457 -1.3232,1.9672 -2.3929,2.5833 -5.6445,2.0674 -7.1989,1.337 z"
             fill="#799afe"
             id="path14" />
        </g>
        <g
           opacity="0.7"
           filter="url(#filter1_f_17633_2641)"
           id="g15">
          <path
             d="m 22.4214,12.5417 c -2.4077,3.794 -7.72,4.4663 -11.8653,1.5016 C 6.41084,11.0786 5.00226,5.5996 7.40998,1.80563 9.8177,-1.98834 15.13,-2.66061 19.2752,0.304084 23.4205,3.26877 24.8291,8.74775 22.4214,12.5417 Z"
             fill="#ac7cff"
             id="path15" />
        </g>
      </g>
    </g>
  </g>
  <defs
     id="defs25">
    <filter
       id="filter0_f_17633_2641"
       x="-1.9114799"
       y="6.2074099"
       width="28.494101"
       height="13.8742"
       filterUnits="userSpaceOnUse"
       color-interpolation-filters="sRGB">
      <feFlood
         flood-opacity="0"
         result="BackgroundImageFix"
         id="feFlood18" />
      <feBlend
         mode="normal"
         in="SourceGraphic"
         in2="BackgroundImageFix"
         result="shape"
         id="feBlend18" />
      <feGaussianBlur
         stdDeviation="1.50176"
         result="effect1_foregroundBlur_17633_2641"
         id="feGaussianBlur18" />
    </filter>
    <filter
       id="filter1_f_17633_2641"
       x="1.56619"
       y="-6.2130499"
       width="26.698999"
       height="26.7738"
       filterUnits="userSpaceOnUse"
       color-interpolation-filters="sRGB">
      <feFlood
         flood-opacity="0"
         result="BackgroundImageFix"
         id="feFlood19" />
      <feBlend
         mode="normal"
         in="SourceGraphic"
         in2="BackgroundImageFix"
         result="shape"
         id="feBlend19" />
      <feGaussianBlur
         stdDeviation="2.33406"
         result="effect1_foregroundBlur_17633_2641"
         id="feGaussianBlur19" />
    </filter>
    <linearGradient
       id="paint0_linear_17633_2641"
       x1="2.5871"
       y1="11.1421"
       x2="22.248199"
       y2="11.1421"
       gradientUnits="userSpaceOnUse">
      <stop
         offset="0.653846"
         stop-color="#00AF57"
         id="stop19" />
    </linearGradient>
    <linearGradient
       id="paint1_linear_17633_2641"
       x1="2.5871"
       y1="12.3703"
       x2="22.5056"
       y2="12.3703"
       gradientUnits="userSpaceOnUse">
      <stop
         offset="0.643271"
         stop-color="#FEC700"
         id="stop20" />
    </linearGradient>
    <linearGradient
       id="paint2_linear_17633_2641"
       x1="12.1273"
       y1="3.57725"
       x2="13.2435"
       y2="15.9592"
       gradientUnits="userSpaceOnUse">
      <stop
         offset="0.682692"
         stop-color="#FC413D"
         id="stop21" />
      <stop
         offset="1"
         stop-color="#FF6595"
         id="stop22" />
    </linearGradient>
    <linearGradient
       id="paint3_linear_17633_2641"
       x1="13.0306"
       y1="18.8901"
       x2="13.4699"
       y2="13.4791"
       gradientUnits="userSpaceOnUse">
      <stop
         offset="0.4"
         stop-color="#3186FF"
         id="stop23" />
    </linearGradient>
    <linearGradient
       id="paint4_linear_17633_2641"
       x1="13.0293"
       y1="18.8901"
       x2="13.4686"
       y2="13.4791"
       gradientUnits="userSpaceOnUse">
      <stop
         offset="0.4"
         stop-color="#3186FF"
         id="stop24" />
    </linearGradient>
    <clipPath
       id="clip0_17633_2641">
      <rect
         width="171"
         height="26.622801"
         fill="#ffffff"
         id="rect24"
         x="0"
         y="0" />
    </clipPath>
    <clipPath
       id="clip1_17633_2641">
      <rect
         width="171"
         height="26.4093"
         fill="#ffffff"
         id="rect25"
         x="0"
         y="0" />
    </clipPath>
  </defs>
</svg>
